<?xml version="1.0" encoding="UTF-8"?>
<svg xmlns="http://www.w3.org/2000/svg" viewBox="0 0 960 600" width="960" height="600" font-family="'Segoe UI', Arial, Helvetica, sans-serif">
<rect width="960" height="600" fill="#FFFFFF"/>
<text x="40.0" y="50.0" font-size="23" font-weight="700" fill="#1F2D24" text-anchor="start" >Oila shajarasi (uch avlod)</text><text x="40.0" y="76.0" font-size="15" font-weight="400" fill="#5E6F65" text-anchor="start" >Oila a’zolari orasida qarindosh nikoh yo‘q</text>
<text x="44.0" y="177.0" font-size="22" font-weight="700" fill="#5E6F65" text-anchor="start" >I</text>
<text x="44.0" y="327.0" font-size="22" font-weight="700" fill="#5E6F65" text-anchor="start" >II</text>
<text x="44.0" y="477.0" font-size="22" font-weight="700" fill="#5E6F65" text-anchor="start" >III</text>
<line x1="420" y1="170" x2="500" y2="170" stroke="#1F2D24" stroke-width="2.6"/>
<line x1="460" y1="170" x2="460" y2="240" stroke="#1F2D24" stroke-width="2.6"/>
<line x1="250" y1="240" x2="790" y2="240" stroke="#1F2D24" stroke-width="2.6"/>
<rect x="380" y="150" width="40" height="40" fill="#FFFFFF" stroke="#1F2D24" stroke-width="2.6"/><text x="400.0" y="212.0" font-size="14" font-weight="600" fill="#5E6F65" text-anchor="middle" >I-1</text>
<circle cx="520" cy="170" r="20.5" fill="#FFFFFF" stroke="#1F2D24" stroke-width="2.6"/><text x="520.0" y="212.0" font-size="14" font-weight="600" fill="#5E6F65" text-anchor="middle" >I-2</text>
<line x1="250" y1="240" x2="250" y2="300" stroke="#1F2D24" stroke-width="2.6"/>
<line x1="450" y1="240" x2="450" y2="300" stroke="#1F2D24" stroke-width="2.6"/>
<line x1="650" y1="240" x2="650" y2="300" stroke="#1F2D24" stroke-width="2.6"/>
<line x1="790" y1="240" x2="790" y2="300" stroke="#1F2D24" stroke-width="2.6"/>
<line x1="150" y1="320" x2="230" y2="320" stroke="#1F2D24" stroke-width="2.6"/>
<line x1="470" y1="320" x2="530" y2="320" stroke="#1F2D24" stroke-width="2.6"/>
<rect x="110" y="300" width="40" height="40" fill="#FFFFFF" stroke="#1F2D24" stroke-width="2.6"/><text x="130.0" y="362.0" font-size="14" font-weight="600" fill="#5E6F65" text-anchor="middle" >II-1</text>
<circle cx="250" cy="320" r="20.5" fill="#1F2D24" stroke="#1F2D24" stroke-width="2.6"/><text x="250.0" y="362.0" font-size="14" font-weight="600" fill="#5E6F65" text-anchor="middle" >II-2</text>
<rect x="430" y="300" width="40" height="40" fill="#FFFFFF" stroke="#1F2D24" stroke-width="2.6"/><text x="450.0" y="362.0" font-size="14" font-weight="600" fill="#5E6F65" text-anchor="middle" >II-3</text>
<circle cx="550" cy="320" r="20.5" fill="#FFFFFF" stroke="#1F2D24" stroke-width="2.6"/><text x="550.0" y="362.0" font-size="14" font-weight="600" fill="#5E6F65" text-anchor="middle" >II-4</text>
<circle cx="650" cy="320" r="20.5" fill="#FFFFFF" stroke="#1F2D24" stroke-width="2.6"/><text x="650.0" y="362.0" font-size="14" font-weight="600" fill="#5E6F65" text-anchor="middle" >II-5</text>
<rect x="770" y="300" width="40" height="40" fill="#1F2D24" stroke="#1F2D24" stroke-width="2.6"/><text x="790.0" y="362.0" font-size="14" font-weight="600" fill="#5E6F65" text-anchor="middle" >II-6</text>
<line x1="190" y1="320" x2="190" y2="400" stroke="#1F2D24" stroke-width="2.6"/>
<line x1="150" y1="400" x2="230" y2="400" stroke="#1F2D24" stroke-width="2.6"/>
<line x1="150" y1="400" x2="150" y2="450" stroke="#1F2D24" stroke-width="2.6"/>
<line x1="230" y1="400" x2="230" y2="450" stroke="#1F2D24" stroke-width="2.6"/>
<line x1="500" y1="320" x2="500" y2="400" stroke="#1F2D24" stroke-width="2.6"/>
<line x1="460" y1="400" x2="540" y2="400" stroke="#1F2D24" stroke-width="2.6"/>
<line x1="460" y1="400" x2="460" y2="450" stroke="#1F2D24" stroke-width="2.6"/>
<line x1="540" y1="400" x2="540" y2="450" stroke="#1F2D24" stroke-width="2.6"/>
<rect x="130" y="450" width="40" height="40" fill="#FFFFFF" stroke="#1F2D24" stroke-width="2.6"/><text x="150.0" y="512.0" font-size="14" font-weight="600" fill="#5E6F65" text-anchor="middle" >III-1</text>
<circle cx="230" cy="470" r="20.5" fill="#FFFFFF" stroke="#1F2D24" stroke-width="2.6"/><text x="230.0" y="512.0" font-size="14" font-weight="600" fill="#5E6F65" text-anchor="middle" >III-2</text>
<circle cx="460" cy="470" r="20.5" fill="#FFFFFF" stroke="#1F2D24" stroke-width="2.6"/><text x="460.0" y="512.0" font-size="14" font-weight="600" fill="#5E6F65" text-anchor="middle" >III-3</text>
<rect x="520" y="450" width="40" height="40" fill="#FFFFFF" stroke="#1F2D24" stroke-width="2.6"/><text x="540.0" y="512.0" font-size="14" font-weight="600" fill="#5E6F65" text-anchor="middle" >III-4</text>
<rect x="700" y="380" width="228" height="178" rx="14" fill="#F5F8F6" stroke="#E3EAE5" stroke-width="1.5"/>
<text x="718.0" y="410.0" font-size="15" font-weight="700" fill="#1F2D24" text-anchor="start" >Shartli belgilar</text>
<rect x="720" y="425" width="22" height="22" fill="#FFFFFF" stroke="#1F2D24" stroke-width="2"/>
<text x="786.0" y="442.0" font-size="15" font-weight="400" fill="#1F2D24" text-anchor="start" >erkak</text>
<circle cx="731" cy="467" r="11.5" fill="#FFFFFF" stroke="#1F2D24" stroke-width="2"/>
<text x="786.0" y="474.0" font-size="15" font-weight="400" fill="#1F2D24" text-anchor="start" >ayol</text>
<rect x="720" y="489" width="22" height="22" fill="#1F2D24"/><circle cx="760" cy="500" r="11.5" fill="#1F2D24"/>
<text x="786.0" y="506.0" font-size="15" font-weight="400" fill="#1F2D24" text-anchor="start" >belgi bor</text>
<line x1="720" y1="532" x2="772" y2="532" stroke="#1F2D24" stroke-width="2.6"/>
<text x="786.0" y="538.0" font-size="15" font-weight="400" fill="#1F2D24" text-anchor="start" >nikoh</text>
</svg>
